<?xml version="1.0" standalone="no"?>
<!DOCTYPE svg PUBLIC "-//W3C//DTD SVG 20010904//EN"
 "http://www.w3.org/TR/2001/REC-SVG-20010904/DTD/svg10.dtd">
<svg version="1.0" xmlns="http://www.w3.org/2000/svg"
 width="300.000000pt" height="260.000000pt" viewBox="0 0 300.000000 260.000000"
 preserveAspectRatio="xMidYMid meet">
<metadata>
Created by potrace 1.10, written by Peter Selinger 2001-2011
</metadata>
<g transform="translate(0.000000,260.000000) scale(0.050000,-0.050000)"
fill="#000000" stroke="none">
<path d="M1230 4321 c-8 -14 -9 -78 -1 -143 l13 -118 -161 0 -161 0 0 -1590 0
-1590 990 0 991 0 17 -46 c47 -123 347 -138 402 -19 l30 64 995 1 995 0 0
1590 0 1590 -160 0 -160 0 0 143 0 143 -204 -14 c-620 -43 -1150 -262 -1550
-639 l-139 -132 -79 81 c-280 289 -769 545 -1218 639 -243 50 -579 73 -600 40z
m560 -194 c427 -86 809 -283 1125 -580 l125 -117 5 -1145 c3 -630 3 -1145 0
-1145 -2 0 -46 31 -96 70 -314 240 -861 426 -1360 465 l-199 15 -5 1247 -5
1246 135 -14 c74 -7 198 -26 275 -42z m3071 -1197 l0 -1240 -176 -13 c-504
-37 -1053 -221 -1373 -461 l-102 -77 -5 1135 -5 1134 85 88 c375 385 1096 704
1530 677 l46 -3 0 -1240z m-3637 -207 l-6 -1177 206 -14 c304 -20 557 -67 817
-152 215 -70 533 -213 515 -230 -4 -5 -331 45 -727 111 -840 139 -764 132
-793 68 -42 -91 -5 -103 600 -193 310 -47 564 -93 564 -103 0 -10 -28 -12 -62
-5 -35 6 -332 12 -660 12 l-598 0 0 1430 0 1430 75 0 75 0 -6 -1177z m3956
-253 l0 -1430 -598 0 c-328 0 -625 -6 -660 -13 -34 -6 -62 -4 -62 7 0 10 227
52 505 93 671 100 644 94 651 155 13 113 -159 99 -1282 -104 -290 -52 -299
-46 -82 60 335 163 656 247 1093 285 l275 24 0 1177 0 1176 80 0 80 0 0 -1430z"/>
<path d="M1920 3298 c-419 -190 -443 -1056 -36 -1270 172 -90 470 -11 596 158
57 77 72 88 82 59 90 -253 170 -313 280 -213 73 66 127 328 68 328 -20 0 -30
-20 -30 -57 0 -106 -119 -161 -186 -87 -101 111 -100 170 7 636 54 237 99 435
99 440 0 4 -53 8 -118 8 l-118 0 -36 -190 c-41 -221 -47 -226 -97 -81 -91 267
-287 371 -511 269z m310 -121 c151 -120 227 -393 172 -624 -98 -413 -272 -584
-432 -425 -160 160 -150 898 14 1051 59 55 174 54 246 -2z"/>
<path d="M3812 3268 c-744 -180 -473 -1405 287 -1296 582 83 682 679 181 1074
l-70 55 270 -5 270 -6 6 105 6 105 -416 -2 c-287 -1 -453 -10 -534 -30z m384
-279 c228 -309 222 -728 -14 -884 -233 -155 -544 111 -576 492 -26 312 128
475 476 501 17 1 68 -48 114 -109z"/>
</g>
</svg>
